<svg width="24" height="24" viewBox="0 0 24 24" fill="none" xmlns="http://www.w3.org/2000/svg">
<g clip-path="url(#clip0_118_4)">
<path d="M22.401 4.818H12.474L10.927 0H1.59901C0.720014 0 0.00201416 0.719 0.00201416 1.599V17.874C0.00201416 18.752 0.722014 19.471 1.59901 19.471H11.599L13.072 24H22.4C23.278 24 23.997 23.293 23.997 22.428V6.39C23.997 5.525 23.278 4.818 22.401 4.818ZM6.74101 13.498C4.67101 13.498 2.99101 11.818 2.99101 9.748C2.99101 7.678 4.67101 5.998 6.74101 5.998C7.75301 5.998 8.60101 6.373 9.25301 6.974L8.26301 7.926C7.84918 7.54361 7.30441 7.33458 6.74101 7.342C5.43601 7.342 4.37801 8.422 4.37801 9.751C4.37801 11.08 5.43601 12.16 6.74001 12.16C8.24701 12.16 8.87001 11.08 8.93001 10.352L6.74201 10.35V9.066H10.252C10.302 9.296 10.342 9.523 10.342 9.83C10.342 11.977 8.90801 13.499 6.74001 13.499L6.74101 13.498ZM23.498 22.428C23.498 23.018 23.006 23.5 22.401 23.5H13.526L17.175 19.47H17.18L16.44 17.168L16.446 17.163C16.446 17.163 17.014 16.675 17.723 15.923C18.435 16.694 19.353 17.622 20.541 18.728L21.312 17.956C20.04 16.802 19.108 15.886 18.422 15.151C19.341 14.064 20.274 12.696 20.471 11.444H22.505V11.446H22.507V10.506H17.975V8.986H16.504V10.506H14.3L12.628 5.296L12.634 5.318H22.401C23.006 5.318 23.498 5.798 23.498 6.39V22.428ZM17.014 15.117C16.478 15.665 16.071 15.99 16.071 15.99L16.063 15.994L14.603 11.446H19.367C19.06 12.53 18.379 13.554 17.716 14.35C16.54 12.958 16.536 12.506 16.536 12.506H15.314C15.314 12.506 15.364 13.185 17.014 15.117Z" fill="black"/>
</g>
<defs>
<clipPath id="clip0_118_4">
<rect width="24" height="24" fill="white"/>
</clipPath>
</defs>
</svg>
